<svg width="762" height="896" viewBox="0 0 762 896" fill="none" xmlns="http://www.w3.org/2000/svg">
<path fill-rule="evenodd" clip-rule="evenodd" d="M377.04 159.68C380.214 151.764 383.765 143.959 387.763 136.266C392.814 126.567 398.537 117.127 404.664 107.836C408.333 102.336 412.225 96.9846 416.384 91.7445C420.551 86.4672 424.919 81.4502 429.569 76.6561C430.391 75.8013 433.886 71.7133 435.984 70.4497C437.007 69.8551 437.942 69.7065 438.592 69.8923C439.257 70.0038 439.74 70.4869 440.075 71.3417C440.938 73.906 440.822 76.6561 440.185 79.4805C439.297 83.1969 437.418 86.9875 436.133 90.5181C434.498 94.7176 432.703 98.8056 430.837 102.894C426.547 112.407 421.896 121.736 417.569 131.249C416.053 134.668 414.566 138.125 412.935 141.581C411.852 143.922 410.667 146.226 409.346 148.493C407.242 152.135 405.046 155.703 402.683 159.196C400.276 162.727 397.74 166.183 394.951 169.454C389.598 175.957 380.897 180.566 375.076 186.698C374.428 187.404 373.809 188.147 373.183 188.927C372.855 189.299 372.52 189.708 372.222 190.117C371.632 194.874 371.058 199.556 370.44 204.276C369.73 209.999 369.18 215.648 368.485 221.297C366.079 240.027 363.726 258.498 363.599 277.414C363.468 295.81 365.201 314.652 370.461 334.497C372.08 340.518 373.924 346.315 375.971 352.001C379.288 358.579 382.06 365.529 385.068 373.11C385.196 373.37 385.05 373.742 384.796 373.928C387.929 380.877 391.346 387.678 394.966 394.368C402.673 408.49 411.178 422.055 420.018 435.396C428.894 448.738 438.111 461.82 446.71 475.459C475.137 520.241 497.848 568.814 511.001 621.215L476.234 527.785C475.551 522.694 475.519 517.602 476.067 512.511C476.525 507.865 477.418 503.22 478.781 498.575C479.966 494.635 481.535 490.77 483.22 486.868C483.463 486.013 483.677 485.121 483.921 484.267C485.295 478.841 486.56 473.415 488.361 468.026C489.744 463.827 491.299 459.664 493.101 455.539C494.903 451.414 497.101 447.475 499.113 443.387C502.206 437.143 505.3 430.9 508.596 424.73C511.388 416.554 512.771 408.007 513.547 399.422C514.447 389.128 514.312 378.759 514.566 368.799C514.66 366.161 514.825 363.522 514.976 360.958C515.478 353.376 516.191 345.832 517.815 338.251C518.653 334.237 519.896 330.372 521.053 326.396C521.091 326.024 521.086 325.689 521.088 325.318C521.008 325.355 520.972 325.355 520.907 325.318C520.364 325.318 520.048 324.909 520.159 324.352C520.233 322.716 520.263 321.118 520.517 319.483C520.563 319.074 520.644 318.666 520.726 318.257C520.677 317.959 520.664 317.662 520.651 317.365C520.637 317.253 520.652 317.179 520.667 317.105C520.584 316.436 520.493 315.804 520.366 315.172C519.442 309.114 516.436 304.06 513.575 298.82C513.095 297.965 512.615 297.111 512.185 296.182C511.212 293.989 510.494 291.61 509.92 289.232C509.255 286.222 508.895 283.137 509.129 279.792C509.32 277.934 509.619 276.076 510.055 274.255C510.934 270.762 512.313 267.305 513.482 263.812C514.541 260.504 515.383 257.197 515.9 253.889C517.693 241.663 519.758 229.882 521.925 218.138C522.885 212.972 523.693 207.844 524.907 202.678C526.58 195.394 528.84 188.073 531.571 180.566C533.574 175.251 535.924 170.011 538.679 164.92C542.749 157.413 547.555 150.203 552.065 143.03C554.925 138.496 558.37 132.847 562.265 127.124C564.656 123.668 567.236 120.175 569.859 116.83C572.147 113.894 574.376 111.07 576.791 108.58C579.571 105.718 582.354 103.377 585.093 101.444C585.935 100.85 586.499 100.924 586.767 101.035C587.099 101.184 587.466 101.519 587.477 102.187C587.483 102.522 586.787 104.008 586.589 104.64L585.357 109.174L581.536 124.486C578.262 136.155 575.596 147.862 572.431 159.531C571.62 162.504 570.816 165.44 569.939 168.376C567.87 175.288 566.611 182.126 565.606 188.965C563.948 200.337 563.238 211.671 562.021 223.006C561.496 227.986 560.798 232.929 559.911 237.909C558.823 243.892 557.41 249.876 555.526 255.859C553.592 261.731 550.9 267.417 547.543 272.806C546.594 274.292 545.638 275.816 544.661 277.265C539.866 286.408 533.98 295.401 530.826 304.841C529.841 307.777 528.892 310.712 528.117 313.686C527.165 317.179 526.402 320.635 525.74 324.129C527.699 319.037 529.621 313.946 531.797 308.854C535.51 300.418 539.73 291.796 544.485 283.397C549.276 274.998 554.601 266.822 560.257 259.167C564.241 254.075 568.35 248.909 572.732 244.004C575.673 240.696 578.693 237.537 581.907 234.49L589.578 227.615L593.262 224.753C593.719 224.456 594.49 223.675 594.904 223.415C595.405 223.081 595.788 223.155 596.129 223.081C596.658 222.969 596.546 223.527 597.132 223.675C597.334 223.75 597.13 224.047 597.382 224.233C597.505 224.344 597.526 224.419 597.597 224.604C597.94 225.422 597.486 226.611 597.147 227.763C596.549 230.03 595.377 232.632 594.832 234.453L589.384 252.477C587.014 260.17 585.497 267.937 583.373 275.667C582.834 277.637 582.26 279.607 581.613 281.576C580.84 283.992 579.829 286.333 578.652 288.6C577.014 291.908 575.073 295.104 573.253 298.411C569.689 304.841 566.263 310.935 562.411 316.807C559.843 320.784 557.066 324.723 553.832 328.588C547.037 336.876 537.312 340.815 530.424 347.579C528.62 349.363 527.003 351.295 525.681 353.748C525.162 354.714 524.563 355.718 524.123 356.833C523.865 357.762 523.029 358.505 522.153 358.542C522.136 358.988 522.12 359.434 522.103 359.88C521.996 362.407 521.961 364.934 521.875 367.536C521.504 377.719 521.043 388.347 519.701 398.865C519.324 401.838 518.874 404.811 518.316 407.784C518.769 406.966 519.258 406.149 519.74 405.368C522.361 400.946 524.837 396.523 527.601 392.287C531.876 385.746 536.547 379.577 541.238 373.668C551.042 361.552 561.878 349.883 573.168 338.66C585.164 326.619 597.629 314.949 609.573 303.168C611.733 301.05 613.865 298.894 616.018 296.813C616.295 296.33 616.565 295.884 616.799 295.438C618.362 292.688 619.528 289.752 620.564 286.742C622.005 282.431 623.041 277.971 624.337 273.66C625.294 270.501 626.418 267.417 627.721 264.518C630.327 258.721 633.463 252.626 637.335 247.014C641.222 241.328 645.779 236.088 650.716 231.665C654.417 228.358 658.114 225.794 661.931 223.712C664.689 222.226 667.496 221.037 670.303 219.847C673.066 218.695 675.858 217.58 678.65 216.466C682.233 215.016 685.845 213.418 689.595 211.671C690.669 211.188 691.678 210.668 692.708 210.036C695.242 208.587 697.703 206.952 700.294 205.577C701.47 204.945 702.588 204.239 703.67 203.533C706.458 201.712 709.059 199.742 711.949 197.958C712.777 197.438 714.556 196.323 715.816 196.174C716.04 196.137 716.279 196.026 716.445 196.1C717.267 196.695 717.292 196.211 717.302 197.066C717.742 197.215 718.224 197.884 718.319 199.036C718.447 200.931 717.98 204.35 717.913 204.871L717.515 207.583L716.907 210.445C715.612 217.283 713.107 224.567 709.842 231.665C706.57 238.801 702.511 245.713 697.877 251.697C695.822 254.372 693.624 256.862 691.245 259.167C688.874 261.434 686.316 263.552 683.715 265.522C676.035 271.356 667.602 276.076 659.401 280.536C655.569 282.505 651.852 284.809 648.064 286.928C646.307 287.931 644.573 288.823 642.817 289.641C639.219 291.35 635.5 292.577 631.88 294.212C630.415 294.844 629.007 295.55 627.614 296.367C620.709 300.678 614.582 305.807 608.678 311.084C605.864 313.574 603.152 316.101 600.396 318.666C603.702 317.513 607.252 316.77 611.664 315.878C614.757 315.246 617.823 314.392 620.939 313.648C622.337 313.351 623.771 313.054 625.183 312.868C629.847 312.348 634.588 312.162 639.321 312.199C646.225 312.236 653.089 312.831 659.695 313.091C663.168 313.277 666.437 313.76 669.639 314.392C674.324 315.395 678.833 316.733 683.537 317.997L693.379 320.895C694.066 321.081 695.506 321.118 696.112 321.341C696.459 321.416 696.624 321.676 696.804 321.862C697.251 322.345 697.081 323.014 696.554 324.017C696.057 325.058 695.017 326.098 693.803 327.102C692.938 327.808 691.922 328.365 691.283 328.848C688.537 330.818 685.828 332.602 683.07 334.274C680.332 336.021 677.509 337.656 674.62 339.254C670.28 341.595 665.55 343.9 660.589 345.906C653.627 348.694 646.204 351.072 638.873 352.447C626.088 354.863 613.534 354.491 603.722 349.994C601.569 349.177 599.607 347.95 597.704 346.613C595.007 344.717 592.478 342.525 590.028 340.481C588.781 339.477 587.463 338.288 585.941 337.396C584.938 336.801 583.811 336.467 582.697 336.244C582.625 336.244 582.596 336.207 582.56 336.207C579.454 339.254 576.333 342.376 573.263 345.423C563.297 355.458 553.504 365.529 544.612 376.158C539.821 381.844 535.252 387.864 530.675 394.108C527.702 398.121 524.62 402.135 521.819 406.372C520.082 409.085 518.403 411.872 516.797 414.659C515.844 418.338 514.71 422.018 513.339 425.622C510.224 433.055 506.532 440.302 502.905 447.586C501.216 450.968 499.49 454.35 497.837 457.732C496.588 461.448 495.338 465.165 494.176 468.807C492.506 474.084 490.669 479.287 489.397 484.564C488.621 487.723 488.134 490.882 487.546 494.003C486.632 498.76 485.862 503.517 485.07 508.2C484.89 509.464 484.565 510.727 484.349 511.991C483.584 517.082 483.269 522.099 483.229 527.005C483.197 531.687 483.594 536.221 484.041 540.681C484.062 540.755 484.084 540.83 484.141 540.904C484.526 542.056 485.614 542.948 485.463 544.249C485.378 545.215 485.133 544.992 484.637 545.661C495.498 569.892 504.435 595.051 511.001 621.215C516.348 642.435 520.121 664.287 521.987 686.808C524.754 720.033 523.366 754.669 517.303 790.606C516.155 797.073 514.972 803.353 513.63 809.523C513.621 809.931 513.568 810.377 513.522 810.786C513.415 811.864 513.272 812.942 513.021 814.019C512.658 815.655 512.157 817.253 511.621 818.851C511.576 819.074 511.495 819.297 511.386 819.482C509.44 827.584 507.243 835.5 504.647 843.416C499.117 860.4 491.982 877.086 483.422 894.925C483.334 895.185 483.015 895.333 482.769 895.296C482.531 895.222 482.438 894.962 482.526 894.702C489.755 876.64 495.219 859.805 499.939 842.896C503.169 831.263 506.073 819.631 508.502 807.479C508.841 799.451 508.085 791.647 506.373 784.103C505.998 782.356 505.508 780.646 505.148 778.825C504.894 777.562 504.829 776.261 504.495 775.035C504.345 774.514 504.116 774.031 503.923 773.548C501.897 767.936 499.537 762.548 496.85 757.345C492.665 749.318 487.819 741.885 483.419 734.749C480.555 730.253 477.437 725.942 474.195 721.705C470.2 718.881 466.565 716.428 462.266 715.127C458.928 714.086 455.371 713.417 451.689 713.009C446.344 712.414 440.729 712.265 434.798 711.708C421.315 710.37 406.784 708.846 394.158 704.127C385.498 700.931 377.8 696.174 371.698 689.596L355.753 671.794L350.902 666.554C350.816 666.443 348.489 664.324 347.575 663.47C347.358 663.284 347.243 663.135 347.178 663.098C347.056 662.986 347.006 662.875 346.985 662.801C346.065 661.426 347.425 660.236 347.774 659.939C348.159 659.642 349.377 659.159 350.933 659.159C353.155 659.084 356.837 659.493 357.336 659.53C360.657 659.567 363.87 659.79 367.044 660.199C371.673 660.757 376.17 661.611 380.886 662.094C386.744 662.838 392.534 664.101 398.214 665.737C406.589 668.189 414.663 671.423 422.26 674.693C429.04 677.703 435.869 681.011 442.413 684.839C434.359 676.254 426.152 667.892 418.242 659.493C408.706 649.273 399.018 639.09 389.163 629.019C382.411 622.069 375.578 615.157 368.557 608.467C367.576 607.761 366.588 607.092 365.629 606.461C365.542 606.535 365.484 606.646 365.396 606.721C364.953 607.129 364.33 607.167 364.006 606.795C362.236 604.974 360.341 603.227 358.468 601.555C354.392 599.139 350.06 597.095 345.644 594.568C341.625 592.413 337.136 589.886 332.361 588.25C329.219 587.135 325.959 586.429 322.702 586.429C310.545 586.244 296.394 589.514 282.928 590.629C276.926 591.149 271.071 591.112 265.604 590.406C259.789 589.625 254.319 588.027 249.653 584.943C247.727 583.716 245.947 582.118 244.278 580.335C242.759 578.699 241.495 576.878 240.39 574.983C238.863 572.307 237.597 569.408 236.099 566.584C234.715 564.094 233.345 561.716 231.924 559.411C230.446 557.033 228.916 554.729 227.532 552.239C226.32 550.158 225.238 547.965 224.259 545.624C223.409 543.543 219.881 540.012 218.854 537.002C218.32 535.329 218.423 533.731 219.095 532.356C219.337 531.873 220.437 530.535 222.471 530.312C224.687 530.089 230.272 530.387 230.634 530.387C235.605 530.498 240.56 531.056 245.382 531.91C250.161 532.802 254.845 533.992 259.369 535.255C265.634 537.039 271.76 539.157 277.761 541.536C283.698 543.877 289.503 546.516 295.272 549.154C301.199 551.904 307.09 554.655 312.726 557.776C318.455 560.972 323.872 564.466 328.998 568.331C333.07 571.49 337.084 574.76 340.494 578.699C340.912 579.145 341.322 579.628 341.696 580.112C348.703 585.24 355.558 590.592 362.231 596.129C371.973 604.231 381.432 612.667 390.606 621.438C388.686 617.647 386.918 613.819 385.245 609.88C382.843 604.156 380.747 598.173 378.643 592.227C377.045 587.73 375.498 583.159 373.944 578.625C373.523 577.473 373.066 576.321 372.601 575.206C372.464 575.169 372.385 575.02 372.342 574.871C371.885 573.719 371.311 572.79 370.934 571.601C370.791 571.229 370.692 570.821 370.585 570.449C369.913 568.925 369.197 567.439 368.481 565.952C366.403 561.864 364.136 557.999 361.511 554.84C359.972 552.945 358.259 551.198 356.458 549.526C352.158 545.512 347.379 541.907 343.137 537.968C337.923 533.1 333.223 528.008 328.96 522.545C324.653 517.119 320.782 511.322 317.051 505.19C314.748 501.325 312.115 496.939 310.076 492.294C308.66 489.061 307.512 485.753 306.922 482.371C306.225 478.618 306.171 474.901 306.589 471.185C307.224 465.833 308.677 460.556 309.886 454.87C310.474 451.748 310.679 448.552 311.093 445.393C311.311 443.944 311.528 442.495 311.898 441.008C312.083 440.079 312.585 439.559 312.978 439.224H313.014C312.986 439.001 313.002 438.741 312.974 438.518C312.86 438.184 313.087 437.775 313.442 437.626C313.805 437.44 314.181 437.552 314.295 437.886C314.431 438.109 314.539 438.295 314.675 438.518C314.747 438.518 314.82 438.518 314.892 438.518C315.254 438.518 315.782 438.593 316.272 439.038C316.488 439.224 316.847 439.782 317.056 440.005L320.121 443.312L327.488 453.161C330.643 457.472 333.456 462.043 336.023 466.763C338.625 471.482 340.945 476.351 343.192 481.219C345.324 485.939 347.5 490.622 349.596 495.341C351.648 500.098 353.613 504.93 355.55 509.724C359.4 519.423 363.048 529.235 366.325 539.269C368.554 546.218 370.937 552.759 372.414 559.672C372.562 560.378 372.739 561.121 372.887 561.827C377.464 572.419 381.57 583.196 385.813 593.825C386.528 595.683 387.249 597.504 387.963 599.362C387.745 596.835 387.562 594.308 387.452 591.781C386.986 582.527 387.165 573.125 387.026 563.685C387.081 557.256 386.959 551.533 387.698 545.661C388.204 541.684 389.086 537.634 390.57 533.285C391.424 530.647 392.103 527.971 392.956 525.332C393.339 524.143 393.75 522.991 394.27 521.839C395.025 520.055 395.989 518.308 397.077 516.487C399.413 512.585 402.204 508.757 404.619 505.004L408.359 498.24C408.374 498.166 409.307 496.939 409.491 496.382C409.675 495.824 409.92 495.862 409.958 495.676C410.068 495.304 410.363 495.639 410.48 495.416C410.604 495.156 410.798 495.453 410.908 495.267C411.046 495.118 411.11 495.341 411.205 495.23C411.656 494.784 411.666 495.639 412.166 495.49C412.666 495.341 412.723 495.601 413.213 495.862C413.61 496.047 413.737 496.679 413.908 497.274C414.384 499.058 414.114 502.217 414.129 503.406C414.203 505.933 414.393 508.423 414.619 510.913C415.019 514.704 415.543 518.42 415.906 522.211C416.613 527.005 416.856 531.762 416.969 536.444C417.089 541.276 416.999 546.07 416.597 550.975C416.021 558.742 414.996 566.584 412.943 574.686C412.448 576.618 411.829 578.625 411.219 580.595C409.326 586.801 407.079 593.156 404.847 599.437C403.877 602.112 402.916 604.751 402.034 607.353C400.542 611.738 399.492 616.086 398.434 620.471C399.102 622.924 399.69 625.414 400.038 628.015C400.588 629.428 401.094 630.877 401.68 632.289C409.01 639.61 416.157 647.118 423.319 654.55C436.908 668.933 451.541 682.98 464.531 698.366C468.005 702.529 471.399 706.728 474.539 711.113C479.288 717.766 483.457 724.79 487.247 732.074C491.254 739.544 495.417 747.496 499.384 755.71C502.098 761.321 504.39 767.23 506.857 772.991C507.408 774.217 508.155 775.369 508.67 776.596C509.213 777.859 509.597 779.197 510.024 780.498C510.75 782.839 511.426 785.255 511.963 787.633C517.286 753.406 518.13 720.404 515.508 688.629C513.691 666.405 510.163 644.776 505.097 623.779C500.386 604.268 494.34 585.277 487.205 566.844C486.72 566.918 486.258 566.696 486.094 566.25C484.57 562.83 483.235 559.374 482.154 555.732C481.849 554.543 481.507 553.354 481.239 552.165C470.328 526.559 457.334 501.956 442.758 478.395C434.231 464.756 425.312 451.451 416.334 438.258C407.277 424.916 398.198 411.686 390.013 397.787C383.456 386.601 377.357 375.117 372.282 362.853C369.545 356.275 367.141 349.474 365.006 342.413C363.065 339.997 360.979 337.582 358.661 335.24C355.119 331.598 351.074 328.663 347.08 325.652C343.001 322.531 338.906 319.483 334.949 316.287C332.182 314.02 329.72 311.493 327.098 309.04C326.457 308.446 325.773 307.888 325.096 307.293C320.81 303.391 316.88 299.155 313.155 294.621C307.632 287.857 302.633 280.647 297.806 273.475C292.634 266.042 288.329 257.531 284.279 248.649C282.619 245.007 281.002 241.328 279.393 237.612C278.12 234.75 276.818 231.851 275.501 229.027C275.357 228.841 275.177 228.655 275.026 228.507C272.831 226.091 270.379 224.419 267.409 223.527C264.338 222.598 260.888 222.3 257.291 222.375C251.942 222.523 246.264 223.415 240.798 223.787C238.38 223.935 236.028 223.935 233.698 223.824C230.269 223.601 226.913 223.192 223.528 222.746C213.577 221.483 203.556 219.662 194.557 216.168C188.418 213.753 182.804 210.519 177.803 206.394C175.375 204.239 173.072 201.823 170.878 199.222C167.685 195.468 164.767 191.417 161.848 187.738C159.037 184.245 156.117 180.751 153.53 177.035C152.74 175.92 152.008 174.694 151.254 173.579C149.431 170.754 147.716 167.93 146.517 164.697C145.91 163.024 146.835 161.835 147.658 160.98C148.196 160.46 148.994 160.088 150.095 159.828C151.377 159.568 154.096 160.088 155.478 160.051C156.846 160.088 158.177 160.126 159.53 160.237C162.597 160.46 165.628 160.869 168.665 161.24C173.959 161.909 179.158 162.69 184.336 163.582C189.541 164.511 194.66 165.514 199.785 166.666C215.115 170.346 230.824 176.478 244.601 185.211C249.651 188.37 254.453 191.863 258.854 195.728C259.655 196.249 260.448 196.806 261.241 197.363C265.79 200.857 269.443 205.391 272.87 210.148C274.702 212.749 276.411 215.425 278.017 218.249C273.759 202.083 270.834 185.397 270.049 167.967C269.755 160.386 269.541 152.953 269.775 145.446C270.06 137.865 270.795 130.209 272.037 122.367L274.281 109.509L275.581 104.454C275.743 104.008 275.827 103.042 275.982 102.633C276.326 101.816 276.756 101.296 277.141 100.998C278.085 100.255 279.341 99.586 280.608 100.85C281.537 101.816 282.267 103.228 282.765 104.9C283.618 107.873 283.838 111.664 284.223 114.08C284.964 117.796 285.755 121.438 286.54 125.117C287.771 130.543 288.994 136.006 290.45 141.395C291.925 147.23 293.596 152.99 295.427 158.676C299.699 172.055 304.495 185.174 307.941 198.887C310.046 207.361 311.709 216.057 312.429 225.125C312.869 229.622 312.614 234.155 312.12 238.801C311.494 245.007 310.499 251.251 309.729 257.457C309.343 260.653 309.045 263.775 308.913 266.971C308.865 267.751 308.782 268.532 308.727 269.349C308.597 273.437 309.185 277.191 310.23 280.833C310.649 282.357 311.112 283.843 311.691 285.293C312.119 286.408 312.599 287.448 313.078 288.489C313.976 289.789 314.881 291.053 315.816 292.354C319.229 296.999 322.955 301.347 326.973 305.324C327.895 306.141 328.781 306.959 329.718 307.702C333.596 310.75 337.94 313.091 342.124 315.692C345.63 317.885 349.128 320.115 352.422 322.642C355.911 325.281 359.109 328.291 362.066 331.598C355.873 306.104 355.114 282.208 356.916 258.535C357.855 246.234 359.351 234.044 361.42 221.706C362.375 216.02 363.592 210.296 364.635 204.536C365.178 201.637 365.693 198.701 366.207 195.765C365.992 195.394 365.872 194.911 366.012 194.39C366.058 193.796 366.148 193.164 366.303 192.569C366.092 190.005 365.657 187.478 364.989 185.025C364.314 182.61 363.443 180.268 362.508 177.89C358.699 168.525 353.13 159.457 348.135 151.318C346.391 148.456 344.69 145.743 343.279 143.03C333.881 125.601 325.402 108.282 321.412 89.3288C318.947 77.5851 318.244 65.1725 319.716 52.0166C320.642 43.7663 322.488 35.2558 325.313 26.3737C326.687 22.3972 328.28 18.049 330.132 13.8495C331.055 11.7684 332.115 9.72439 333.059 7.71755C334.112 5.52491 335.079 3.40658 336.225 1.47406C337.116 -0.0868038 338.274 -0.0868086 339.076 0.0618459C339.452 0.173339 339.87 0.433487 340.237 0.953773C340.473 1.39974 340.699 2.44031 340.943 2.84912L344.275 9.35275L350.054 21.1708C352.753 26.8568 355.241 32.6915 357.475 38.712C359.724 44.6582 361.77 50.7159 363.743 56.7735C365.552 62.3852 367.304 67.9226 368.852 73.5715C371.232 82.1191 373.156 90.7782 374.76 99.586C375.541 104.008 376.277 108.468 376.782 113.002C378.031 123.408 378.489 134.148 378.193 145.223C378.052 150.091 377.673 154.885 377.04 159.68ZM468.126 714.049C466.581 713.455 465.049 712.971 463.51 712.526C460.034 711.448 456.361 710.816 452.521 710.296C447.278 709.552 441.76 708.921 435.968 708.029C423.053 706.022 409.316 703.42 397.139 698.626C389.159 695.467 381.704 691.491 375.924 685.47C373.699 683.203 371.526 680.862 369.294 678.632C365.932 675.176 362.476 671.831 358.976 668.524L354.23 664.027C355.177 664.176 355.907 664.324 356.124 664.324C356.233 664.324 356.29 664.399 356.399 664.399C357.055 664.919 357.711 665.439 358.41 665.922C363.449 669.676 369.099 672.909 374.822 675.957C382.046 679.822 389.599 683.129 397.338 685.508C409.484 689.187 422.641 691.974 435.075 695.839C443.356 698.403 451.315 701.488 458.436 705.687C460.564 706.988 462.575 708.512 464.448 710.184C465.313 710.927 466.126 711.745 466.94 712.563C467.306 713.083 467.716 713.566 468.126 714.049ZM361.338 665.03C363.544 665.402 365.691 665.885 367.86 666.257C371.518 666.963 375.227 667.595 378.995 668.115C384.571 668.821 390.072 670.085 395.513 671.646C403.686 674.024 411.609 677.109 419.039 680.305C427.921 684.021 436.815 688.406 445.22 693.423C449.873 696.211 454.33 699.258 458.561 702.529C458.762 702.789 458.971 703.012 459.172 703.272C459.23 703.346 459.287 703.42 459.345 703.495C452.311 699.221 444.454 695.988 436.253 693.386C423.841 689.41 410.669 686.697 398.479 683.055C392.374 681.197 386.343 678.781 380.511 675.919C373.84 672.723 367.528 668.821 361.338 665.03ZM395.369 605.94C394.571 600.7 394.142 595.423 393.822 590.146C393.24 580.929 393.049 571.75 392.714 562.385C392.592 559.374 392.484 556.476 392.39 553.688C392.246 550.789 392.115 548.002 392.261 545.103C392.374 541.461 392.798 537.708 393.775 533.546C394.293 531.316 394.681 529.012 395.251 526.707C395.613 525.258 396.018 523.772 396.554 522.359C397.398 520.13 398.539 517.863 399.845 515.67C401.86 512.288 404.215 509.018 406.193 505.821L409.99 500.581C410.113 501.956 409.849 504 409.94 504.632L410.075 505.227C410.158 510.058 409.967 514.815 409.232 519.758C407.785 529.532 404.962 539.492 402.812 549.34C401.87 553.688 401.138 558.074 400.566 562.385C399.635 568.851 398.965 575.28 398.143 581.747C397.31 588.808 396.036 595.906 395.544 602.893C395.48 603.933 395.388 604.937 395.369 605.94ZM412.36 515.335L414.072 522.88C414.844 527.525 415.37 532.133 415.39 536.742C415.408 541.536 414.949 546.367 414.172 551.161C412.931 558.817 410.626 566.361 408.082 574.203C407.478 576.135 406.919 578.03 406.25 579.926C404.177 586.132 401.533 592.301 399.38 598.545C398.682 600.589 398.071 602.558 397.481 604.602C397.591 602.967 397.773 601.332 397.963 599.66C398.653 593.676 399.755 587.619 400.604 581.561C401.455 575.132 402.125 568.702 403.056 562.236C403.657 557.962 404.403 553.688 405.337 549.377C407.494 539.492 410.333 529.458 411.802 519.572C412.005 518.197 412.179 516.785 412.36 515.335ZM227.301 540.904C234.294 546.107 241.811 550.864 249.357 555.472C256.232 559.634 263.377 563.351 271.041 566.101C274.689 567.402 278.454 568.479 282.314 569.446C291.153 571.564 300.373 573.05 309.052 575.429C319.61 578.365 329.838 582.23 339.11 587.433C342.978 589.625 346.685 592.078 350.203 594.754C349.099 594.122 347.959 593.49 346.818 592.859C342.836 590.517 338.348 587.804 333.64 585.835C330.361 584.497 326.951 583.456 323.457 583.196C311.42 582.23 297.21 584.348 283.71 584.906C278.129 585.129 272.658 585.166 267.56 584.423C262.461 583.679 257.772 582.156 253.545 579.591C251.828 578.588 250.14 577.436 248.577 576.024C247.144 574.686 245.95 573.236 244.894 571.638C243.192 569.111 241.745 566.398 240.065 563.76C238.5 561.27 236.826 558.965 235.347 556.587C234.328 554.989 233.388 553.354 232.485 551.719C231.022 549.08 229.662 546.293 228.57 543.245C228.342 542.576 227.847 541.796 227.301 540.904ZM225.44 535.552C227.336 535.664 229.108 535.85 229.325 535.85C233.036 536.11 236.76 536.667 240.433 537.299C245.971 538.377 251.421 539.715 256.653 541.238C261.56 542.576 266.327 544.249 271.044 545.995C278.18 548.671 285.156 551.607 292.045 554.617C298.016 557.144 303.886 559.82 309.625 562.608C312.101 563.797 314.577 564.986 316.995 566.287C326.919 572.939 336.434 580.186 345.578 587.842C343.998 586.875 342.375 585.946 340.715 585.017C331.312 579.74 320.963 575.763 310.231 572.79C301.61 570.3 292.428 568.628 283.61 566.398C279.859 565.432 276.167 564.354 272.628 563.053C267.037 560.972 261.68 558.445 256.506 555.546C245.725 549.563 235.646 542.242 225.44 535.552ZM315.531 449.258C318.848 461.448 322.041 473.712 326.032 485.604C329.474 495.899 333.562 505.859 338.935 515.001C343.849 523.363 350.576 530.981 356.287 539.157C357.839 541.35 359.253 543.691 360.594 546.033C360.472 545.921 360.349 545.81 360.227 545.698C356.196 541.424 351.606 537.596 347.597 533.397C342.795 528.454 338.509 523.288 334.528 517.863C330.51 512.437 326.762 506.751 323.218 500.767C320.965 497.014 318.388 492.889 316.334 488.503C315.017 485.679 313.845 482.854 313.238 479.918C312.53 476.76 312.431 473.638 312.628 470.479C312.958 465.387 313.947 460.259 314.786 454.796C315.121 452.938 315.348 451.079 315.531 449.258ZM318.581 450.113C320.14 452.269 321.576 454.499 323.055 456.691C325.964 460.965 328.524 465.536 330.888 470.182C333.238 474.901 335.376 479.77 337.399 484.675C339.308 489.247 341.173 493.855 343.153 498.426C346.092 505.264 349.119 512.028 352.021 518.866C354.188 523.957 356.347 529.086 358.39 534.252C353.051 526.93 346.891 520.092 342.32 512.548C336.895 503.666 332.748 494.003 329.145 483.969C325.2 472.932 322.003 461.411 318.581 450.113ZM411.802 498.76C411.794 498.798 411.794 498.798 411.794 498.798H411.758L411.802 498.76ZM411.904 498.612C411.955 498.537 411.962 498.5 411.941 498.426C411.927 498.314 412.056 498.575 411.983 498.575C411.947 498.575 411.947 498.575 411.904 498.612ZM587.541 233.821C585.718 236.422 583.96 239.061 582.195 241.737C574.836 252.849 567.923 264.258 560.852 275.556C554.956 284.958 549.132 294.361 543.654 304.023C540.053 310.452 536.582 316.956 533.349 323.534C529.692 330.967 526.158 338.511 523.187 346.129C523.4 344.16 523.613 342.19 523.826 340.22C523.827 340.035 523.856 339.886 523.886 339.737C524.303 338.92 524.676 338.139 525.093 337.322C529.437 328.44 532.611 319.26 536.805 310.229C540.538 302.053 544.815 293.692 549.453 285.516C554.119 277.377 559.118 269.387 564.584 261.954C568.186 256.788 571.94 251.585 575.983 246.568C578.634 243.261 581.415 240.027 584.333 237.017L587.541 233.821ZM687.121 326.135C685.132 327.399 683.113 328.625 681.074 329.777C678.373 331.338 675.659 332.788 672.801 334.237C665.552 337.916 657.111 341.224 648.485 343.825C643.035 345.386 637.477 346.761 632.002 347.542C622.66 348.842 613.643 348.694 606.125 345.758C604.254 344.977 602.552 343.9 600.923 342.636C598.378 340.704 596.089 338.399 593.799 336.281C592.207 334.832 590.385 333.085 588.307 331.896C593.176 330.707 597.801 330.558 602.352 330.781C606.469 331.004 610.511 331.598 614.567 332.305C624.14 334.014 633.71 336.281 643.997 335.686C648.702 335.501 653.663 334.757 658.684 333.717C663.777 332.676 668.951 331.413 673.966 330.038C676.155 329.406 678.307 328.774 680.416 328.179C682.612 327.51 684.86 326.767 687.121 326.135ZM591.281 232.669C591.083 233.115 590.929 233.524 590.783 233.895C590.173 235.679 589.548 237.537 589.01 239.321C587.693 243.558 586.557 247.795 585.268 252.068C582.999 259.798 581.584 267.603 579.524 275.37C579.029 277.302 578.513 279.161 577.91 281.093C577.218 283.286 576.295 285.367 575.293 287.485C573.67 290.718 571.808 293.877 570.04 297.111C566.598 303.466 563.332 309.486 559.496 315.284C557.001 319.074 554.239 322.754 551.058 326.358C547.054 330.818 542.039 333.642 537.262 336.541C534.576 338.214 531.897 339.849 529.528 341.744C532.068 336.095 534.702 330.521 537.554 324.946C540.865 318.517 544.35 312.125 547.9 305.77C553.255 296.182 558.739 286.668 564.389 277.228C573.041 262.548 581.462 247.757 590.807 233.412C590.96 233.189 591.121 232.929 591.281 232.669ZM590.671 328.217C590.8 328.291 590.953 328.254 591.213 328.217C591.655 328.179 592.005 327.696 592.411 327.473C599.011 323.422 603.682 322.679 611.519 321.49C614.655 321.007 617.814 320.226 620.929 319.669C622.168 319.446 623.435 319.26 624.652 319.149C627.997 318.703 631.363 318.517 634.758 318.368C642.742 318.071 650.868 318.331 658.583 318.294C661.847 318.257 664.987 318.48 668.053 318.889C672.783 319.483 677.351 320.524 682.13 321.416L688.405 322.791C685.659 323.311 682.898 324.091 680.246 324.686C677.739 325.281 675.196 325.875 672.602 326.544C666.826 328.105 660.889 329.926 655.086 331.078C651.464 331.821 647.915 332.379 644.476 332.565C634.474 332.825 625.311 330.149 615.999 328.402C611.777 327.622 607.553 327.027 603.226 326.953C599.036 326.916 594.786 327.362 590.394 328.514L590.671 328.217ZM578.189 113.894C575.221 118.242 572.614 122.776 570.282 127.384C565.054 137.79 561.321 148.679 558.021 159.754C554.531 171.423 551.815 183.018 549.511 194.539C546.057 211.82 543.413 229.027 539.965 246.457C538.767 252.812 537.431 259.129 535.98 265.484C534.507 271.765 532.911 278.12 531.077 284.401C528.77 292.502 525.761 300.493 523.324 308.52C522.453 303.466 520.625 298.672 518.761 293.877C516.918 289.158 514.945 284.549 515.242 278.9C515.268 276.596 515.635 274.218 516.118 271.802C516.55 269.461 517.062 267.082 517.638 264.741C518.634 261.025 519.739 257.308 520.258 253.629C522.008 241.254 523.452 229.324 526.256 217.469C527.395 212.675 528.998 207.918 530.528 203.161C532.72 196.174 535.167 189.187 538.265 182.015C539.833 178.336 541.711 174.731 543.582 171.163C544.861 168.747 546.14 166.332 547.448 163.953C550.874 157.859 554.502 151.838 558.086 145.855C560.765 141.321 564.058 135.709 567.642 129.912C569.744 126.455 571.897 122.925 574.165 119.543C575.492 117.61 576.848 115.715 578.189 113.894ZM581.072 114.86L578.708 124.151C575.333 134.334 572.494 144.554 569.337 154.737C567.961 159.085 566.556 163.396 565.043 167.707C561.907 176.701 559.943 185.62 558.565 194.502C556.977 204.796 556.136 214.979 555.034 225.199C554.165 233.71 553.194 242.183 551.232 250.73C551.196 250.73 551.16 250.73 551.124 250.73C550.559 250.842 550.093 251.362 550.09 251.92C549.923 254.744 549.381 257.457 548.585 260.17C548.056 261.731 547.411 263.329 546.737 264.89C545.419 267.863 543.863 270.762 542.335 273.698C540.413 277.34 538.347 280.796 536.606 284.438C536.152 285.441 535.857 286.37 535.491 287.299C535.389 287.448 535.359 287.597 535.373 287.708C534.847 288.712 534.328 289.678 533.801 290.681C534.441 288.749 535.081 286.816 535.677 284.921C537.621 278.454 539.333 272.062 540.908 265.633C542.395 259.278 543.753 252.849 544.994 246.457C548.812 226.091 551.55 206.06 555.693 185.88C557.431 177.369 559.436 168.785 561.884 160.163C564.442 151.169 567.318 142.213 571.031 133.591C573.8 127.161 577.111 120.918 581.072 114.86ZM715.432 204.61C715.459 204.833 715.466 204.982 715.459 205.019L714.946 207.583L714.273 210.408C712.647 216.912 709.919 223.861 706.317 230.476C702.802 237.017 698.428 243.149 693.682 248.426C691.68 250.656 689.506 252.663 687.274 254.595C685.035 256.565 682.731 258.498 680.356 260.244C672.975 265.67 664.911 270.167 657.103 274.292C655.956 274.961 654.78 275.593 653.662 276.299C649.415 278.9 645.339 281.911 640.977 284.364C637.559 286.259 633.954 287.82 630.486 289.604C629.92 289.901 629.39 290.198 628.831 290.458C633.502 285.739 637.949 280.87 643.232 276.522C652.114 269.201 661.693 262.734 670.776 255.673C673.094 253.852 675.376 252.031 677.607 250.099C680.268 247.832 682.806 245.453 685.279 243.038C688.974 239.396 692.518 235.605 696.033 231.777C698.996 228.544 701.821 225.273 704.465 221.817C707.11 218.361 709.539 214.719 711.729 211.003C712.891 208.996 714.298 206.84 715.432 204.61ZM713.26 201.897C712.103 204.61 710.301 207.286 708.878 209.702C706.746 213.307 704.398 216.726 701.847 220.07C699.297 223.415 696.617 226.686 693.786 229.807C690.335 233.672 686.936 237.463 683.349 241.105C680.992 243.484 678.57 245.825 675.982 248.092C672.747 250.879 669.383 253.592 665.946 256.119C657.795 262.14 649.249 267.603 641.307 273.846C637.063 277.154 633.151 280.796 629.412 284.475C628.059 285.813 626.742 287.151 625.389 288.489C625.514 288.229 625.602 287.968 625.726 287.708C627.464 283.36 628.913 278.826 630.376 274.404C631.346 271.542 632.273 268.718 633.459 266.042C635.81 260.616 638.821 254.967 642.178 249.578C645.535 244.19 649.216 238.987 653.473 234.527C658.836 228.878 664.45 225.05 670.493 222.152C673.011 220.962 675.643 219.922 678.297 218.956C682.19 217.58 686.184 216.428 690.324 214.905C691.535 214.459 692.732 213.901 693.9 213.307C696.476 212.006 698.959 210.445 701.52 209.219C702.884 208.55 704.154 207.806 705.425 207.063C708.067 205.428 710.566 203.607 713.26 201.897ZM301.048 269.387C299.267 262.548 296.652 256.082 294.508 249.43C290.42 236.757 286.244 224.158 283.178 211.077C279.764 196.657 277.337 181.829 276.781 166.332C276.393 157.413 276.257 148.679 276.621 139.797C276.847 133.962 277.261 128.09 278.081 121.996L279.377 112.073C279.66 113.374 279.842 114.637 280.075 115.641C280.202 116.458 280.371 117.239 280.505 118.019C280.382 117.908 280.237 117.908 280.085 117.945C279.781 118.019 279.577 118.316 279.597 118.577C279.941 126.269 279.886 134.148 280.251 141.915C280.47 147.155 280.884 152.321 281.582 157.338C282.629 164.771 283.915 172.092 285.361 179.339C288.704 196.286 292.873 212.898 296.151 229.807C297.371 236.014 298.568 242.331 299.57 248.724C300.279 252.96 300.88 257.197 301.364 261.471C301.788 264.778 301.995 268.272 302.397 271.691C302.182 271.319 301.93 270.947 301.722 270.539C301.471 270.167 301.263 269.758 301.048 269.387ZM280.68 119.134C281.481 123.631 282.298 128.053 283.231 132.439C284.051 136.118 284.951 139.76 285.96 143.402C287.544 149.237 289.396 154.997 291.211 160.757C295.514 173.988 300.041 187.181 303.313 200.857C305.275 209.144 306.758 217.655 307.378 226.5C307.978 236.534 305.008 246.865 303.667 257.011C303.278 253.889 302.845 250.805 302.34 247.72C301.294 241.365 300.148 234.973 298.936 228.73C295.571 211.894 291.496 195.171 288.03 178.299C286.497 171.126 285.123 163.879 283.989 156.521C283.386 152.841 282.985 149.051 282.665 145.223C281.863 136.564 281.46 127.719 280.68 119.134ZM153.227 167.149C154.301 167.93 155.361 168.785 156.471 169.565C158.606 171.014 160.864 172.39 163.093 173.727C164.745 174.694 166.456 175.548 168.225 176.292C175.649 179.339 183.291 182.201 191.116 184.691C194.613 185.843 198.175 186.846 201.694 187.887C209.997 190.34 218.307 192.755 226.685 194.651C232.077 195.914 237.2 197.438 242.155 199.259C247.11 201.08 251.89 203.235 256.792 205.502C259.694 206.915 262.458 208.475 265.003 210.222C265.601 210.854 266.242 211.448 266.795 212.117C267.183 212.712 267.535 213.307 267.922 213.901C269.292 216.28 270.575 218.733 271.807 221.26C270.875 220.851 269.878 220.591 268.852 220.293C265.484 219.402 261.75 219.253 257.828 219.327C252.479 219.476 246.795 220.033 241.337 220.182C239.079 220.256 236.894 220.145 234.768 219.922C231.477 219.55 228.259 218.993 225.005 218.435C217.066 217.06 209.216 215.239 201.827 212.563C198.143 211.263 194.663 209.665 191.292 207.881C187.951 206.134 184.719 204.202 181.793 201.823C179.422 199.928 177.153 197.698 175.009 195.394C171.713 191.789 168.614 187.924 165.549 184.431C162.11 180.454 158.236 176.663 155.496 172.092C154.577 170.531 153.819 168.896 153.227 167.149ZM156.637 166.926L166.4 168.227C171.571 168.97 176.646 169.825 181.7 170.791C186.754 171.758 191.793 172.798 196.794 174.025C211.627 177.295 226.773 183.167 240.344 191.12C246.484 194.799 252.317 198.924 257.642 203.421C252.688 201.414 247.762 199.63 242.806 197.995C237.705 196.36 232.546 194.836 227.059 193.684C217.134 191.38 207.176 188.704 197.532 185.36C191.781 183.353 186.206 181.011 180.66 178.707C176.92 177.146 173.208 175.623 169.547 174.025C165.518 172.278 162.145 169.602 158.225 167.67C157.734 167.41 157.207 167.149 156.637 166.926ZM338.041 8.49799C337.955 8.38649 337.861 8.31216 337.673 8.34933C337.412 8.38649 337.15 8.60948 337.135 8.86962C335.465 18.3092 335.155 27.8231 336.004 37.1511C337.213 51.0132 340.762 64.3921 343.903 76.9162C346.45 86.8017 349.033 96.6872 351.747 106.461C353.588 113.002 355.515 119.469 357.508 125.972C360.684 135.969 364.48 146.486 366.862 157.375C368.417 164.622 369.326 172.018 368.925 179.636C368.91 179.711 368.924 179.822 368.909 179.897C368.797 180.64 368.684 181.383 368.58 182.089C368.09 180.194 367.492 178.299 366.778 176.44C362.829 166.146 355.495 157.041 350.134 148.196C348.699 145.78 347.445 143.365 346.35 141.061C338.543 124.003 332.002 106.944 328.455 89.0315C327.552 84.4976 326.809 79.8893 326.297 75.2067C325.476 67.551 325.365 59.598 326.074 51.3476C326.765 43.5433 328.132 35.4416 330.484 26.9311C331.659 22.3229 333.046 17.1943 334.967 12.2887C335.445 10.9879 335.943 9.76154 336.521 8.49799C336.814 7.94053 337.099 7.42024 337.384 6.89995L338.041 8.49799ZM436.478 75.5783C436.486 75.5412 436.522 75.5412 436.529 75.504C436.465 76.7304 436.212 77.9939 435.866 79.1832C434.907 82.7137 433.101 86.3186 431.773 89.7005C429.813 95.1635 427.578 100.552 425.169 105.904C421.516 114.043 417.501 121.996 413.841 130.172C412.289 133.591 410.802 137.047 409.156 140.392C408.102 142.584 406.977 144.777 405.721 146.895C403.648 150.389 401.473 153.845 399.132 157.227C396.843 160.534 394.351 163.768 391.701 166.889C386.7 172.538 378.972 176.44 373.25 181.532L373.273 181.42C373.651 180.974 374.022 180.566 374.372 180.082C374.613 179.785 374.788 179.451 375 179.116C377.699 174.842 380.876 170.717 383.814 166.518C385.477 164.176 387.074 161.798 388.461 159.382L405.107 129.874C411.431 118.874 417.258 107.465 423.54 96.3156C427.301 89.6262 431.243 83.1225 435.618 76.8047C435.881 76.3959 436.281 76.0243 436.478 75.5783ZM429.564 81.7475C427.777 84.3489 426.048 87.0247 424.392 89.7005C416.488 102.448 409.818 115.901 402.378 128.685L385.544 158.044C383.04 162.244 380.031 166.258 377.137 170.234C377.57 169.156 378.017 168.004 378.464 166.852C382.359 156.967 386.932 147.304 391.909 137.79C396.887 128.276 402.305 118.911 408.222 109.769C411.731 104.343 415.471 99.0286 419.435 93.8628C422.655 89.7005 426.034 85.6497 429.564 81.7475ZM338.12 8.64664L339.505 12.2143L344.609 24.5155C346.605 29.0123 348.426 33.6578 350.124 38.3775C352.685 45.4758 354.964 52.7227 357.097 59.9696C358.769 65.5441 360.289 71.1558 361.816 76.7304C364.066 85.2037 366.259 93.6027 367.98 102.187C368.826 106.461 369.585 110.809 370.272 115.158C371.842 125.043 373.013 135.114 373.342 145.595C372.691 152.656 371.88 159.605 370.955 166.406C370.654 163.024 370.165 159.68 369.531 156.335C367.402 145.26 363.673 134.594 360.635 124.448C358.151 116.421 355.877 108.245 353.676 100.069C351.475 91.8931 349.361 83.6428 347.24 75.4297C343.953 63.0913 340.679 49.7868 338.889 36.2964C337.662 27.2285 337.073 18.049 338.09 8.7953C338.098 8.75813 338.113 8.6838 338.12 8.64664ZM582.83 108.059C582.75 108.096 582.67 108.134 582.583 108.208C582.692 108.022 582.794 107.873 582.933 107.725L582.83 108.059Z" fill="white"/>
</svg>
